<svg width="150" height="25" viewBox="0 0 150 25" fill="none" xmlns="http://www.w3.org/2000/svg">
<path fill-rule="evenodd" clip-rule="evenodd" d="M9.64509 24.6707C14.2305 24.6707 18.4205 22.5778 18.4205 17.5834C18.4205 12.9854 14.3253 11.5585 10.9416 10.4962C8.44341 9.71925 6.27722 9.16432 6.27722 7.62636C6.27722 6.00913 7.68445 5.27979 9.45535 5.27979C11.4792 5.27979 12.7916 6.2311 13.1711 8.43498L18.3573 7.1507C17.4086 2.55269 13.1711 0.919598 9.12331 0.919598C4.31658 0.919598 0.838016 3.45643 0.838016 7.76906C0.838016 12.0183 4.45888 13.3184 7.76351 14.3965C10.4515 15.2527 12.839 15.9186 12.839 17.8847C12.8549 19.5178 11.6215 20.3105 9.88227 20.3105C7.55796 20.3105 5.81868 19.0421 5.58151 16.4894L0 17.7737C0.6799 22.2607 4.66443 24.6707 9.64509 24.6707ZM31.0111 7.48367C28.6394 7.48367 26.7578 8.3557 25.5403 9.76682V0H20.3857V24.3536H25.5403V15.4747C25.5719 12.3037 27.4535 11.606 29.0347 11.606C30.6 11.606 31.8333 12.3037 31.8333 14.6027V24.3536H37.0195V13.7782C37.0195 9.57656 34.8534 7.48367 31.0111 7.48367ZM55.4288 15.8711L55.3655 17.0919H43.3645C43.5859 19.4861 45.2303 20.6276 47.2384 20.6276C48.7563 20.6276 49.9105 19.9776 50.4639 18.6457L55.2074 19.2958C54.148 22.7364 51.0964 24.6707 47.27 24.6707C41.7517 24.6707 38.2574 21.5314 38.2574 16.093C38.2574 10.6388 41.8624 7.45195 47.0961 7.45195C51.8395 7.45195 55.3972 10.0046 55.4288 15.8711ZM47.1277 11.0669C45.2303 11.0669 43.9496 11.8597 43.5069 13.7623H50.3533C50.0687 11.9865 48.7879 11.0669 47.1277 11.0669ZM68.5202 24.6707C73.8329 24.6707 78.0388 21.8961 79.6357 17.3615L74.6077 15.554C73.7222 18.1859 71.3821 19.7398 68.5202 19.7398C64.8044 19.7398 62.0058 17.1078 62.0058 12.7952C62.0058 8.48254 64.8044 5.85057 68.5202 5.85057C71.3821 5.85057 73.7222 7.40439 74.6077 10.0364L79.6357 8.22886C78.0388 3.69426 73.8329 0.919598 68.5202 0.919598C61.6579 0.919598 56.6456 5.58103 56.6456 12.7952C56.6456 20.0093 61.6579 24.6707 68.5202 24.6707ZM89.0325 24.6707C83.6091 24.6707 79.7669 21.4997 79.7669 16.0613C79.7669 10.6547 83.5775 7.48365 89.0325 7.48365C94.5033 7.48365 98.3139 10.6547 98.3139 16.0613C98.3139 21.4997 94.4875 24.6707 89.0325 24.6707ZM88.9693 20.6118C91.5149 20.6118 93.191 18.7726 93.191 16.0613C93.191 13.366 91.5149 11.5268 88.9693 11.5268C86.5343 11.5268 84.8899 13.366 84.8899 16.0613C84.8899 18.7726 86.5343 20.6118 88.9693 20.6118ZM111.411 0H116.565V24.3536H111.695L111.569 22.4986C110.667 23.9573 108.738 24.75 106.588 24.75C102.208 24.75 98.5873 21.579 98.5873 16.1248C98.5873 10.6706 102.224 7.48367 106.588 7.48367C108.612 7.48367 110.446 8.1813 111.411 9.49728V0ZM107.79 20.4849C110.066 20.4849 111.837 18.836 111.837 16.1248C111.837 13.4135 110.066 11.7487 107.79 11.7487C105.513 11.7487 103.742 13.3659 103.742 16.1248C103.742 18.8677 105.513 20.4849 107.79 20.4849ZM135.322 15.8711L135.259 17.0919H123.258C123.479 19.4861 125.124 20.6276 127.132 20.6276C128.65 20.6276 129.804 19.9776 130.357 18.6457L135.101 19.2958C134.042 22.7364 130.99 24.6707 127.163 24.6707C121.645 24.6707 118.151 21.5314 118.151 16.093C118.151 10.6388 121.756 7.45195 126.99 7.45195C131.733 7.45195 135.291 10.0046 135.322 15.8711ZM127.021 11.0669C125.124 11.0669 123.843 11.8597 123.4 13.7623H130.247C129.962 11.9865 128.681 11.0669 127.021 11.0669ZM142.964 24.6707C146.664 24.6707 150 23.3072 150 19.4226C150 15.8552 147.201 14.6819 144.672 13.9843C142.616 13.4135 140.719 13.2074 140.719 12.05C140.719 11.2413 141.588 10.8767 142.711 10.8767C143.96 10.8767 144.893 11.3523 145.43 12.7634L149.383 11.8914C148.719 8.6728 145.968 7.49951 142.695 7.49951C138.9 7.49951 136.038 9.08503 136.038 12.5256C136.038 15.2527 137.809 16.3467 139.691 17.0444C142.284 18.0432 145.035 18.1067 145.035 19.7556C145.051 20.8496 143.976 21.1192 142.995 21.1192C141.604 21.1192 140.466 20.5642 139.928 18.8677L135.643 20.0727C136.26 23.2596 139.201 24.6707 142.964 24.6707Z" fill="#272142"/>
</svg>
